<?xml version="1.0" encoding="utf-8"?>
<!-- Generator: Adobe Illustrator 19.2.1, SVG Export Plug-In . SVG Version: 6.00 Build 0)  -->
<svg version="1.1" id="Layer_1" xmlns="http://www.w3.org/2000/svg" xmlns:xlink="http://www.w3.org/1999/xlink" x="0px" y="0px"
	 viewBox="0 0 68.3 54.6" enable-background="new 0 0 68.3 54.6" xml:space="preserve">
<path fill="#FFC300" d="M44.9,3.9c5.4,0,9.8,22.7,9.8,50.7h7.8C62.4,24.5,54.6,0,44.9,0c-5.5,0-10.4,7.4-13.7,18.8
	C28,7.4,23.1,0,17.6,0C7.9,0,0,24.5,0,54.6h7.8c0-28,4.4-50.7,9.8-50.7c5.4,0,9.8,21,9.8,46.8h7.8C35.1,24.9,39.5,3.9,44.9,3.9
	 M66.4,50.7c1.1,0,1.9,0.8,1.9,1.9c0,1.1-0.9,2-1.9,2c-1.1,0-2-0.8-2-2C64.4,51.6,65.3,50.7,66.4,50.7 M66.4,54.3
	c0.9,0,1.6-0.7,1.6-1.7c0-0.9-0.7-1.7-1.6-1.7c-0.9,0-1.6,0.7-1.6,1.7C64.7,53.6,65.4,54.3,66.4,54.3L66.4,54.3z M65.6,51.5h0.9
	c0.5,0,0.8,0.2,0.8,0.7c0,0.4-0.3,0.6-0.6,0.6l0.6,1h-0.4l-0.6-1h-0.4v1h-0.4L65.6,51.5L65.6,51.5z M65.9,52.6h0.4
	c0.3,0,0.6,0,0.6-0.4c0-0.3-0.3-0.4-0.5-0.4h-0.5V52.6L65.9,52.6z"/>
</svg>
